<svg width="265" height="149" viewBox="0 0 265 149" fill="none" xmlns="http://www.w3.org/2000/svg">
<path d="M179 55H87C83.6863 55 81 57.6863 81 61V89C81 92.3137 83.6863 95 87 95H179C182.314 95 185 92.3137 185 89V61C185 57.6863 182.314 55 179 55Z" fill="#52CCC1" stroke="#4A5568" stroke-width="2" stroke-linecap="round" stroke-linejoin="round"/>
<path d="M129.486 74.6995V72.4885H131.378C131.774 72.4885 132.071 72.5765 132.269 72.7525C132.467 72.9212 132.566 73.1962 132.566 73.5775C132.566 73.9735 132.467 74.2595 132.269 74.4355C132.071 74.6115 131.774 74.6995 131.378 74.6995H129.486ZM127.759 71.1465V79.0005H129.486V75.9315H131.213C131.646 75.9315 131.957 76.0268 132.148 76.2175C132.339 76.4082 132.463 76.7088 132.522 77.1195C132.566 77.4348 132.599 77.7648 132.621 78.1095C132.643 78.4542 132.702 78.7512 132.797 79.0005H134.524C134.443 78.8905 134.381 78.7585 134.337 78.6045C134.3 78.4432 134.271 78.2745 134.249 78.0985C134.234 77.9225 134.223 77.7502 134.216 77.5815C134.209 77.4128 134.201 77.2662 134.194 77.1415C134.179 76.9435 134.15 76.7455 134.106 76.5475C134.069 76.3495 134.007 76.1698 133.919 76.0085C133.831 75.8398 133.717 75.6968 133.578 75.5795C133.439 75.4548 133.263 75.3632 133.05 75.3045V75.2825C133.49 75.1065 133.805 74.8498 133.996 74.5125C134.194 74.1752 134.293 73.7755 134.293 73.3135C134.293 73.0128 134.238 72.7342 134.128 72.4775C134.025 72.2135 133.871 71.9825 133.666 71.7845C133.468 71.5865 133.226 71.4325 132.94 71.3225C132.661 71.2052 132.346 71.1465 131.994 71.1465H127.759ZM139.525 75.5465H136.984C136.992 75.4365 137.014 75.3118 137.05 75.1725C137.094 75.0332 137.164 74.9012 137.259 74.7765C137.362 74.6518 137.494 74.5492 137.655 74.4685C137.824 74.3805 138.033 74.3365 138.282 74.3365C138.664 74.3365 138.946 74.4392 139.129 74.6445C139.32 74.8498 139.452 75.1505 139.525 75.5465ZM136.984 76.5365H141.087C141.117 76.0965 141.08 75.6748 140.977 75.2715C140.875 74.8682 140.706 74.5088 140.471 74.1935C140.244 73.8782 139.951 73.6288 139.591 73.4455C139.232 73.2548 138.81 73.1595 138.326 73.1595C137.894 73.1595 137.498 73.2365 137.138 73.3905C136.786 73.5445 136.482 73.7572 136.225 74.0285C135.969 74.2925 135.771 74.6078 135.631 74.9745C135.492 75.3412 135.422 75.7372 135.422 76.1625C135.422 76.6025 135.488 77.0058 135.62 77.3725C135.76 77.7392 135.954 78.0545 136.203 78.3185C136.453 78.5825 136.757 78.7878 137.116 78.9345C137.476 79.0738 137.879 79.1435 138.326 79.1435C138.972 79.1435 139.522 78.9968 139.976 78.7035C140.431 78.4102 140.768 77.9225 140.988 77.2405H139.613C139.562 77.4165 139.423 77.5852 139.195 77.7465C138.968 77.9005 138.697 77.9775 138.381 77.9775C137.941 77.9775 137.604 77.8638 137.369 77.6365C137.135 77.4092 137.006 77.0425 136.984 76.5365ZM146.051 75.3155H147.58C147.558 74.9488 147.47 74.6335 147.316 74.3695C147.162 74.0982 146.96 73.8745 146.711 73.6985C146.469 73.5152 146.19 73.3795 145.875 73.2915C145.567 73.2035 145.244 73.1595 144.907 73.1595C144.445 73.1595 144.034 73.2365 143.675 73.3905C143.316 73.5445 143.011 73.7608 142.762 74.0395C142.513 74.3108 142.322 74.6372 142.19 75.0185C142.065 75.3925 142.003 75.7995 142.003 76.2395C142.003 76.6648 142.073 77.0572 142.212 77.4165C142.351 77.7685 142.546 78.0728 142.795 78.3295C143.044 78.5862 143.345 78.7878 143.697 78.9345C144.056 79.0738 144.449 79.1435 144.874 79.1435C145.629 79.1435 146.249 78.9455 146.733 78.5495C147.217 78.1535 147.51 77.5778 147.613 76.8225H146.106C146.055 77.1745 145.926 77.4568 145.721 77.6695C145.523 77.8748 145.237 77.9775 144.863 77.9775C144.621 77.9775 144.416 77.9225 144.247 77.8125C144.078 77.7025 143.943 77.5632 143.84 77.3945C143.745 77.2185 143.675 77.0242 143.631 76.8115C143.587 76.5988 143.565 76.3898 143.565 76.1845C143.565 75.9718 143.587 75.7592 143.631 75.5465C143.675 75.3265 143.748 75.1285 143.851 74.9525C143.961 74.7692 144.1 74.6225 144.269 74.5125C144.438 74.3952 144.647 74.3365 144.896 74.3365C145.563 74.3365 145.948 74.6628 146.051 75.3155ZM150.046 76.1625C150.046 75.9352 150.068 75.7115 150.112 75.4915C150.156 75.2715 150.23 75.0772 150.332 74.9085C150.442 74.7398 150.585 74.6042 150.761 74.5015C150.937 74.3915 151.157 74.3365 151.421 74.3365C151.685 74.3365 151.905 74.3915 152.081 74.5015C152.265 74.6042 152.408 74.7398 152.51 74.9085C152.62 75.0772 152.697 75.2715 152.741 75.4915C152.785 75.7115 152.807 75.9352 152.807 76.1625C152.807 76.3898 152.785 76.6135 152.741 76.8335C152.697 77.0462 152.62 77.2405 152.51 77.4165C152.408 77.5852 152.265 77.7208 152.081 77.8235C151.905 77.9262 151.685 77.9775 151.421 77.9775C151.157 77.9775 150.937 77.9262 150.761 77.8235C150.585 77.7208 150.442 77.5852 150.332 77.4165C150.23 77.2405 150.156 77.0462 150.112 76.8335C150.068 76.6135 150.046 76.3898 150.046 76.1625ZM148.484 76.1625C148.484 76.6172 148.554 77.0278 148.693 77.3945C148.833 77.7612 149.031 78.0765 149.287 78.3405C149.544 78.5972 149.852 78.7952 150.211 78.9345C150.571 79.0738 150.974 79.1435 151.421 79.1435C151.869 79.1435 152.272 79.0738 152.631 78.9345C152.998 78.7952 153.31 78.5972 153.566 78.3405C153.823 78.0765 154.021 77.7612 154.16 77.3945C154.3 77.0278 154.369 76.6172 154.369 76.1625C154.369 75.7078 154.3 75.2972 154.16 74.9305C154.021 74.5565 153.823 74.2412 153.566 73.9845C153.31 73.7205 152.998 73.5188 152.631 73.3795C152.272 73.2328 151.869 73.1595 151.421 73.1595C150.974 73.1595 150.571 73.2328 150.211 73.3795C149.852 73.5188 149.544 73.7205 149.287 73.9845C149.031 74.2412 148.833 74.5565 148.693 74.9305C148.554 75.2972 148.484 75.7078 148.484 76.1625ZM155.55 73.3135V79.0005H157.112V76.4375C157.112 76.1808 157.138 75.9425 157.189 75.7225C157.24 75.5025 157.325 75.3118 157.442 75.1505C157.567 74.9818 157.728 74.8498 157.926 74.7545C158.124 74.6592 158.366 74.6115 158.652 74.6115C158.747 74.6115 158.846 74.6188 158.949 74.6335C159.052 74.6408 159.14 74.6518 159.213 74.6665V73.2145C159.088 73.1778 158.975 73.1595 158.872 73.1595C158.674 73.1595 158.483 73.1888 158.3 73.2475C158.117 73.3062 157.944 73.3905 157.783 73.5005C157.622 73.6032 157.479 73.7315 157.354 73.8855C157.229 74.0322 157.13 74.1935 157.057 74.3695H157.035V73.3135H155.55ZM163.834 76.1405C163.834 76.3752 163.812 76.6025 163.768 76.8225C163.724 77.0425 163.651 77.2405 163.548 77.4165C163.445 77.5852 163.306 77.7208 163.13 77.8235C162.961 77.9262 162.749 77.9775 162.492 77.9775C162.25 77.9775 162.041 77.9262 161.865 77.8235C161.696 77.7135 161.553 77.5742 161.436 77.4055C161.326 77.2295 161.245 77.0315 161.194 76.8115C161.143 76.5915 161.117 76.3715 161.117 76.1515C161.117 75.9168 161.139 75.6932 161.183 75.4805C161.234 75.2605 161.311 75.0662 161.414 74.8975C161.524 74.7288 161.667 74.5932 161.843 74.4905C162.019 74.3878 162.235 74.3365 162.492 74.3365C162.749 74.3365 162.961 74.3878 163.13 74.4905C163.299 74.5932 163.434 74.7288 163.537 74.8975C163.647 75.0588 163.724 75.2495 163.768 75.4695C163.812 75.6822 163.834 75.9058 163.834 76.1405ZM163.856 78.2745V79.0005H165.341V71.1465H163.779V74.0065H163.757C163.581 73.7278 163.339 73.5188 163.031 73.3795C162.73 73.2328 162.411 73.1595 162.074 73.1595C161.656 73.1595 161.289 73.2438 160.974 73.4125C160.659 73.5738 160.395 73.7902 160.182 74.0615C159.977 74.3328 159.819 74.6482 159.709 75.0075C159.606 75.3595 159.555 75.7262 159.555 76.1075C159.555 76.5035 159.606 76.8848 159.709 77.2515C159.819 77.6182 159.977 77.9445 160.182 78.2305C160.395 78.5092 160.662 78.7328 160.985 78.9015C161.308 79.0628 161.682 79.1435 162.107 79.1435C162.481 79.1435 162.815 79.0775 163.108 78.9455C163.409 78.8062 163.651 78.5825 163.834 78.2745H163.856Z" fill="white"/>
<path d="M76.035 15V4.29H79.35L81.855 11.655H81.885L84.255 4.29H87.57V15H85.365V7.41H85.335L82.71 15H80.895L78.27 7.485H78.24V15H76.035ZM94.4734 12V11.205C94.3034 11.355 93.9334 11.47 93.3634 11.55C92.7134 11.65 92.2834 11.745 92.0734 11.835C91.6534 12.025 91.4434 12.345 91.4434 12.795C91.4434 13.455 91.8784 13.785 92.7484 13.785C93.8984 13.785 94.4734 13.19 94.4734 12ZM91.6834 9.63H89.5534C89.6134 8.71 90.0184 8.03 90.7684 7.59C91.3884 7.22 92.1984 7.035 93.1984 7.035C95.4684 7.035 96.6034 7.77 96.6034 9.24V13.275C96.6034 14.135 96.6934 14.71 96.8734 15H94.7134C94.6234 14.72 94.5734 14.47 94.5634 14.25C93.9534 14.89 93.0834 15.21 91.9534 15.21C91.1734 15.21 90.5484 15.02 90.0784 14.64C89.5684 14.23 89.3134 13.645 89.3134 12.885C89.3134 12.095 89.5884 11.505 90.1384 11.115C90.5384 10.845 91.1434 10.65 91.9534 10.53C93.1034 10.37 93.6884 10.285 93.7084 10.275C94.2184 10.145 94.4734 9.89 94.4734 9.51C94.4734 9.09 94.3334 8.8 94.0534 8.64C93.8534 8.52 93.5334 8.46 93.0934 8.46C92.2234 8.46 91.7534 8.85 91.6834 9.63ZM98.4817 15V7.245H100.507V8.325H100.552C101.082 7.465 101.872 7.035 102.922 7.035C103.992 7.035 104.747 7.325 105.187 7.905C105.567 8.405 105.757 9.18 105.757 10.23V15H103.627V10.62C103.627 9.35 103.172 8.715 102.262 8.715C101.682 8.715 101.262 8.89 101.002 9.24C100.742 9.59 100.612 10.155 100.612 10.935V15H98.4817ZM114.873 7.245V15H112.848V13.92H112.803C112.273 14.78 111.483 15.21 110.433 15.21C109.363 15.21 108.608 14.915 108.168 14.325C107.788 13.835 107.598 13.065 107.598 12.015V7.245H109.728V11.625C109.728 12.895 110.183 13.53 111.093 13.53C111.673 13.53 112.093 13.355 112.353 13.005C112.613 12.655 112.743 12.09 112.743 11.31V7.245H114.873ZM121.545 12V11.205C121.375 11.355 121.005 11.47 120.435 11.55C119.785 11.65 119.355 11.745 119.145 11.835C118.725 12.025 118.515 12.345 118.515 12.795C118.515 13.455 118.95 13.785 119.82 13.785C120.97 13.785 121.545 13.19 121.545 12ZM118.755 9.63H116.625C116.685 8.71 117.09 8.03 117.84 7.59C118.46 7.22 119.27 7.035 120.27 7.035C122.54 7.035 123.675 7.77 123.675 9.24V13.275C123.675 14.135 123.765 14.71 123.945 15H121.785C121.695 14.72 121.645 14.47 121.635 14.25C121.025 14.89 120.155 15.21 119.025 15.21C118.245 15.21 117.62 15.02 117.15 14.64C116.64 14.23 116.385 13.645 116.385 12.885C116.385 12.095 116.66 11.505 117.21 11.115C117.61 10.845 118.215 10.65 119.025 10.53C120.175 10.37 120.76 10.285 120.78 10.275C121.29 10.145 121.545 9.89 121.545 9.51C121.545 9.09 121.405 8.8 121.125 8.64C120.925 8.52 120.605 8.46 120.165 8.46C119.295 8.46 118.825 8.85 118.755 9.63ZM125.613 15V4.29H127.743V15H125.613ZM134.27 15V4.29H140.045C140.985 4.29 141.75 4.58 142.34 5.16C142.9 5.72 143.18 6.415 143.18 7.245C143.18 8.575 142.615 9.47 141.485 9.93V9.96C142.425 10.2 142.945 11.035 143.045 12.465C143.075 12.895 143.105 13.325 143.135 13.755C143.195 14.335 143.315 14.75 143.495 15H141.14C141.03 14.73 140.945 14.325 140.885 13.785C140.845 13.335 140.805 12.885 140.765 12.435C140.685 11.855 140.51 11.44 140.24 11.19C139.98 10.94 139.56 10.815 138.98 10.815H136.625V15H134.27ZM136.625 6.12V9.135H139.205C140.285 9.135 140.825 8.625 140.825 7.605C140.825 6.615 140.285 6.12 139.205 6.12H136.625ZM152.445 11.64H146.85C146.91 12.95 147.545 13.605 148.755 13.605C149.165 13.605 149.535 13.495 149.865 13.275C150.175 13.085 150.365 12.86 150.435 12.6H152.31C151.74 14.34 150.53 15.21 148.68 15.21C147.47 15.21 146.505 14.835 145.785 14.085C145.075 13.325 144.72 12.34 144.72 11.13C144.72 9.95 145.085 8.975 145.815 8.205C146.555 7.425 147.51 7.035 148.68 7.035C149.94 7.035 150.915 7.505 151.605 8.445C152.245 9.305 152.525 10.37 152.445 11.64ZM146.85 10.29H150.315C150.115 9.19 149.55 8.64 148.62 8.64C148.02 8.64 147.56 8.84 147.24 9.24C147 9.54 146.87 9.89 146.85 10.29ZM160.849 7.245L158.224 15H155.854L153.199 7.245H155.434L157.069 12.54H157.099L158.734 7.245H160.849ZM162.012 15V7.245H164.142V15H162.012ZM164.142 4.29V6.045H162.012V4.29H164.142ZM173.394 11.64H167.799C167.859 12.95 168.494 13.605 169.704 13.605C170.114 13.605 170.484 13.495 170.814 13.275C171.124 13.085 171.314 12.86 171.384 12.6H173.259C172.689 14.34 171.479 15.21 169.629 15.21C168.419 15.21 167.454 14.835 166.734 14.085C166.024 13.325 165.669 12.34 165.669 11.13C165.669 9.95 166.034 8.975 166.764 8.205C167.504 7.425 168.459 7.035 169.629 7.035C170.889 7.035 171.864 7.505 172.554 8.445C173.194 9.305 173.474 10.37 173.394 11.64ZM167.799 10.29H171.264C171.064 9.19 170.499 8.64 169.569 8.64C168.969 8.64 168.509 8.84 168.189 9.24C167.949 9.54 167.819 9.89 167.799 10.29ZM186.192 7.245L183.747 15H181.557L180.177 9.795H180.147L178.827 15H176.622L174.162 7.245H176.412L177.837 12.51H177.867L179.157 7.245H181.227L182.547 12.495H182.577L184.002 7.245H186.192Z" fill="#BBBBBB"/>
<path d="M110.502 78.0755C113.073 78.0755 115.169 75.9801 115.169 73.4086V67.4169C115.169 64.8454 113.073 62.75 110.502 62.75C107.93 62.75 105.835 64.8454 105.835 67.4169V73.4086C105.835 75.9849 107.931 78.0755 110.502 78.0755ZM107.46 67.4169C107.46 65.7414 108.826 64.3749 110.502 64.3749C112.177 64.3749 113.544 65.7414 113.544 67.4169V73.4086C113.544 75.0842 112.177 76.4506 110.502 76.4506C108.826 76.4506 107.46 75.0842 107.46 73.4086V67.4169Z" fill="white" stroke="white" stroke-width="0.5"/>
<path d="M103.565 72.5996C103.114 72.5996 102.75 72.9641 102.75 73.4143C102.75 77.4112 105.793 80.7141 109.688 81.1179V84.1607H107.004C106.553 84.1607 106.189 84.5251 106.189 84.9754C106.189 85.4257 106.553 85.7902 107.004 85.7902H113.996C114.447 85.7902 114.811 85.4257 114.811 84.9754C114.811 84.5251 114.447 84.1607 113.996 84.1607H111.312V81.1177C115.207 80.7097 118.25 77.4116 118.25 73.4143C118.25 72.9641 117.886 72.5996 117.435 72.5996C116.985 72.5996 116.621 72.9641 116.621 73.4143C116.621 76.7933 113.872 79.5418 110.493 79.5418C107.115 79.5418 104.368 76.7951 104.366 73.4177C104.377 72.9648 104.015 72.5996 103.565 72.5996Z" fill="white" stroke="white" stroke-width="0.5"/>
</svg>
