<svg width="195" height="97" viewBox="0 0 195 97" fill="none" xmlns="http://www.w3.org/2000/svg">
<g clip-path="url(#clip0_2957_2)">
<path d="M155 38.3H105C104.061 38.3 103.3 39.0612 103.3 40V56C103.3 56.9389 104.061 57.7 105 57.7H155C155.939 57.7 156.7 56.9389 156.7 56V40C156.7 39.0612 155.939 38.3 155 38.3Z" fill="white" stroke="black" stroke-width="0.6"/>
<path d="M107.84 51H110.115C110.418 50.9967 110.711 50.9495 110.994 50.8584C111.281 50.7673 111.533 50.6354 111.751 50.4629C111.969 50.2936 112.143 50.082 112.273 49.8281C112.404 49.5742 112.467 49.2812 112.464 48.9492C112.464 48.7376 112.431 48.5407 112.366 48.3584C112.304 48.1761 112.216 48.0117 112.103 47.8652C111.995 47.7318 111.858 47.6097 111.692 47.499C111.526 47.3883 111.354 47.3118 111.175 47.2695V47.2549C111.347 47.18 111.494 47.1003 111.614 47.0156C111.738 46.931 111.85 46.8268 111.951 46.7031C112.049 46.5827 112.125 46.446 112.181 46.293C112.239 46.14 112.27 45.9707 112.273 45.7852C112.277 45.4531 112.213 45.1683 112.083 44.9307C111.953 44.693 111.779 44.4977 111.561 44.3447C111.342 44.1917 111.093 44.0794 110.813 44.0078C110.534 43.9329 110.247 43.8939 109.954 43.8906H107.84V51ZM108.748 47.6748H110.188C110.381 47.6813 110.56 47.7139 110.726 47.7725C110.892 47.8311 111.036 47.9141 111.16 48.0215C111.284 48.1322 111.38 48.2656 111.448 48.4219C111.52 48.5781 111.554 48.7572 111.551 48.959C111.551 49.1576 111.512 49.335 111.434 49.4912C111.359 49.6475 111.256 49.7793 111.126 49.8867C110.996 49.9941 110.846 50.0788 110.677 50.1406C110.507 50.1992 110.328 50.2301 110.14 50.2334H108.748V47.6748ZM108.748 46.9229V44.6621H109.983C110.159 44.6654 110.33 44.6882 110.496 44.7305C110.665 44.7728 110.815 44.8379 110.945 44.9258C111.072 45.0169 111.173 45.1325 111.248 45.2725C111.326 45.4124 111.365 45.5817 111.365 45.7803C111.365 45.9658 111.326 46.1286 111.248 46.2686C111.17 46.4085 111.067 46.5257 110.94 46.6201C110.813 46.7178 110.669 46.7926 110.506 46.8447C110.343 46.8936 110.177 46.9196 110.008 46.9229H108.748ZM113.997 43.5V44.2861H115.794V50.2188H113.997V51H118.421V50.2188H116.697V43.5H113.997ZM123.333 51H124.275V50.9219C124.217 50.7754 124.171 50.6045 124.139 50.4092C124.106 50.2106 124.09 50.0234 124.09 49.8477V47.3916C124.09 47.0954 124.036 46.8366 123.929 46.6152C123.821 46.3939 123.675 46.2083 123.489 46.0586C123.3 45.9121 123.077 45.8031 122.82 45.7314C122.563 45.6566 122.285 45.6191 121.985 45.6191C121.657 45.6191 121.362 45.6647 121.102 45.7559C120.844 45.847 120.626 45.9658 120.447 46.1123C120.265 46.262 120.125 46.4297 120.027 46.6152C119.933 46.8008 119.884 46.9896 119.881 47.1816H120.789C120.789 47.071 120.815 46.9652 120.867 46.8643C120.923 46.7601 120.999 46.6706 121.097 46.5957C121.194 46.5208 121.313 46.4606 121.453 46.415C121.596 46.3695 121.757 46.3467 121.937 46.3467C122.129 46.3467 122.301 46.3711 122.454 46.4199C122.61 46.4688 122.742 46.5371 122.85 46.625C122.957 46.7161 123.04 46.8252 123.099 46.9521C123.157 47.0791 123.187 47.2223 123.187 47.3818V47.7969H122.2C121.832 47.7969 121.499 47.8327 121.199 47.9043C120.903 47.9759 120.649 48.0833 120.438 48.2266C120.226 48.373 120.062 48.5553 119.944 48.7734C119.83 48.9915 119.773 49.2454 119.773 49.5352C119.773 49.7565 119.816 49.9632 119.9 50.1553C119.988 50.3441 120.112 50.5068 120.271 50.6436C120.428 50.7835 120.618 50.8942 120.843 50.9756C121.071 51.057 121.325 51.0977 121.604 51.0977C121.777 51.0977 121.94 51.0798 122.093 51.0439C122.246 51.0081 122.391 50.9593 122.527 50.8975C122.661 50.8356 122.783 50.764 122.894 50.6826C123.007 50.6012 123.11 50.515 123.201 50.4238C123.211 50.5345 123.226 50.6419 123.245 50.7461C123.268 50.847 123.297 50.9316 123.333 51ZM121.736 50.3115C121.561 50.3115 121.406 50.2887 121.272 50.2432C121.139 50.1976 121.028 50.1341 120.94 50.0527C120.853 49.9746 120.786 49.8802 120.74 49.7695C120.698 49.6589 120.677 49.5384 120.677 49.4082C120.677 49.2715 120.701 49.1494 120.75 49.042C120.802 48.9346 120.877 48.8418 120.975 48.7637C121.111 48.653 121.295 48.5716 121.526 48.5195C121.761 48.4642 122.034 48.4365 122.347 48.4365H123.187V49.5059C123.134 49.61 123.063 49.7109 122.972 49.8086C122.881 49.903 122.773 49.9876 122.649 50.0625C122.522 50.1374 122.382 50.1976 122.229 50.2432C122.076 50.2887 121.912 50.3115 121.736 50.3115ZM125.867 51H126.771V47.2109C126.832 47.097 126.904 46.9928 126.985 46.8984C127.07 46.804 127.161 46.721 127.259 46.6494C127.379 46.568 127.511 46.5046 127.654 46.459C127.798 46.4102 127.952 46.3857 128.118 46.3857C128.31 46.3857 128.479 46.4085 128.626 46.4541C128.776 46.4997 128.903 46.5729 129.007 46.6738C129.108 46.7747 129.184 46.9066 129.236 47.0693C129.288 47.2321 129.314 47.4307 129.314 47.665V51H130.218V47.6455C130.218 47.2939 130.174 46.9912 130.086 46.7373C130.001 46.4801 129.879 46.2686 129.72 46.1025C129.56 45.9365 129.367 45.8145 129.139 45.7363C128.914 45.6582 128.663 45.6191 128.387 45.6191C128.182 45.6224 127.986 45.6533 127.801 45.7119C127.618 45.7673 127.449 45.847 127.293 45.9512C127.189 46.0195 127.09 46.1009 126.995 46.1953C126.904 46.2865 126.819 46.3874 126.741 46.498L126.678 45.7168H125.867V51ZM133.455 48.5342L135.394 51H136.541L134.075 47.9189L136.214 45.7168H135.115L133.382 47.4551L132.791 48.0898V43.5H131.883V51H132.791V49.1738L133.455 48.5342Z" fill="black"/>
<path d="M141 43H140V53H141V43Z" fill="#24CEBF"/>
<path d="M40.092 43.004V53H41.422V48.422H46.014V47.302H41.422V44.124H46.658V43.004H40.092ZM49.1951 44.46V43.004H48.0051V44.46H49.1951ZM48.0051 45.762V53H49.1951V45.762H48.0051ZM51.1086 43.004V53H52.2986V43.004H51.1086ZM54.2121 43.004V53H55.4021V43.004H54.2121ZM62.4021 44.46V43.004H61.2121V44.46H62.4021ZM61.2121 45.762V53H62.4021V45.762H61.2121ZM64.2456 45.762V53H65.4356V48.912C65.4356 48.5853 65.4776 48.2867 65.5616 48.016C65.6549 47.736 65.7903 47.4933 65.9676 47.288C66.1449 47.0827 66.3643 46.924 66.6256 46.812C66.8963 46.7 67.2136 46.644 67.5776 46.644C68.0349 46.644 68.3943 46.7747 68.6556 47.036C68.9169 47.2973 69.0476 47.652 69.0476 48.1V53H70.2376V48.24C70.2376 47.848 70.1956 47.4933 70.1116 47.176C70.0369 46.8493 69.9016 46.5693 69.7056 46.336C69.5096 46.1027 69.2529 45.9207 68.9356 45.79C68.6183 45.6593 68.2216 45.594 67.7456 45.594C66.6723 45.594 65.8883 46.0327 65.3936 46.91H65.3656V45.762H64.2456ZM77.5734 45.762V43.592H76.3834V45.762H75.1514V46.812H76.3834V51.418C76.3834 51.754 76.4161 52.0247 76.4814 52.23C76.5467 52.4353 76.6447 52.594 76.7754 52.706C76.9154 52.818 77.0927 52.8973 77.3074 52.944C77.5314 52.9813 77.7974 53 78.1054 53H79.0154V51.95H78.4694C78.2827 51.95 78.1287 51.9453 78.0074 51.936C77.8954 51.9173 77.8067 51.8847 77.7414 51.838C77.6761 51.7913 77.6294 51.726 77.6014 51.642C77.5827 51.558 77.5734 51.446 77.5734 51.306V46.812H79.0154V45.762H77.5734ZM80.3374 43.004V53H81.5274V48.912C81.5274 48.5853 81.5694 48.2867 81.6534 48.016C81.7467 47.736 81.8821 47.4933 82.0594 47.288C82.2367 47.0827 82.4561 46.924 82.7174 46.812C82.9881 46.7 83.3054 46.644 83.6694 46.644C84.1267 46.644 84.4861 46.7747 84.7474 47.036C85.0087 47.2973 85.1394 47.652 85.1394 48.1V53H86.3294V48.24C86.3294 47.848 86.2874 47.4933 86.2034 47.176C86.1287 46.8493 85.9934 46.5693 85.7974 46.336C85.6014 46.1027 85.3447 45.9207 85.0274 45.79C84.7101 45.6593 84.3134 45.594 83.8374 45.594C83.6227 45.594 83.3987 45.6173 83.1654 45.664C82.9414 45.7107 82.7221 45.7853 82.5074 45.888C82.3021 45.9813 82.1154 46.1073 81.9474 46.266C81.7794 46.4153 81.6487 46.602 81.5554 46.826H81.5274V43.004H80.3374ZM93.1427 48.688H88.9847C89.0034 48.408 89.064 48.1467 89.1667 47.904C89.2694 47.652 89.4094 47.4327 89.5867 47.246C89.764 47.0593 89.974 46.9147 90.2167 46.812C90.4687 46.7 90.7487 46.644 91.0567 46.644C91.3554 46.644 91.626 46.7 91.8687 46.812C92.1207 46.9147 92.3354 47.0593 92.5127 47.246C92.6994 47.4233 92.844 47.638 92.9467 47.89C93.0587 48.142 93.124 48.408 93.1427 48.688ZM94.2907 50.704H93.1147C93.012 51.18 92.7974 51.5347 92.4707 51.768C92.1534 52.0013 91.7427 52.118 91.2387 52.118C90.8467 52.118 90.506 52.0527 90.2167 51.922C89.9274 51.7913 89.6894 51.6187 89.5027 51.404C89.316 51.18 89.1807 50.928 89.0967 50.648C89.0127 50.3587 88.9754 50.0553 88.9847 49.738H94.4027C94.4214 49.2993 94.3794 48.8373 94.2767 48.352C94.1834 47.8667 94.006 47.4187 93.7447 47.008C93.4927 46.5973 93.152 46.2613 92.7227 46C92.3027 45.7293 91.7707 45.594 91.1267 45.594C90.632 45.594 90.1747 45.6873 89.7547 45.874C89.344 46.0607 88.9847 46.322 88.6767 46.658C88.378 46.994 88.1447 47.3907 87.9767 47.848C87.8087 48.3053 87.7247 48.8093 87.7247 49.36C87.7434 49.9107 87.8227 50.4193 87.9627 50.886C88.112 51.3527 88.3314 51.754 88.6207 52.09C88.91 52.426 89.2647 52.6873 89.6847 52.874C90.114 53.0607 90.618 53.154 91.1967 53.154C92.018 53.154 92.6994 52.9487 93.2407 52.538C93.782 52.1273 94.132 51.516 94.2907 50.704Z" fill="#8E9092"/>
</g>
<defs>
<clipPath id="clip0_2957_2">
<rect width="195" height="97" fill="white"/>
</clipPath>
</defs>
</svg>
