<svg width="208" height="136" viewBox="0 0 208 136" fill="none" xmlns="http://www.w3.org/2000/svg">
    <path d="M78.0859 82.4512L133.463 65.3952" stroke="#9B51E0" stroke-width="1.41991" stroke-linecap="round"/>
    <path d="M78.0859 65.3945L129.913 98.0864" stroke="#9B51E0" stroke-width="1.41991" stroke-linecap="round"/>
    <path d="M73.8262 98.0859L129.913 82.6849" stroke="#9B51E0" stroke-width="1.41991" stroke-linecap="round"/>
    <rect width="12.2727" height="58.8482" rx="6.13637" transform="matrix(-4.25297e-08 1 1 4.49259e-08 22.0762 59)" fill="#9B51E0" stroke="#404B5C" stroke-width="1.41991" stroke-linecap="round" stroke-linejoin="round"/>
    <rect width="12.2727" height="58.8482" rx="6.13637" transform="matrix(-4.29007e-08 1 1 4.45374e-08 22 75.3613)" fill="white" stroke="#404B5C" stroke-width="1.41991" stroke-linecap="round" stroke-linejoin="round"/>
    <rect width="12.2727" height="58.8482" rx="6.13637" transform="matrix(-4.43541e-08 1 1 4.3078e-08 22.0781 91.7266)" fill="white" stroke="#404B5C" stroke-width="1.41991" stroke-linecap="round" stroke-linejoin="round"/>
    <rect width="12.2694" height="58.8323" rx="6.13471" transform="matrix(-4.25297e-08 1 1 4.49259e-08 127.167 59)" fill="white" stroke="#404B5C" stroke-width="1.41991" stroke-linecap="round" stroke-linejoin="round"/>
    <rect width="12.2694" height="58.8323" rx="6.13471" transform="matrix(-4.29007e-08 1 1 4.45374e-08 127.073 75.3594)" fill="white" stroke="#404B5C" stroke-width="1.41991" stroke-linecap="round" stroke-linejoin="round"/>
    <rect width="12.2694" height="58.8323" rx="6.13471" transform="matrix(-4.47874e-08 1 1 4.26612e-08 127.168 91.7188)" fill="#9B51E0" stroke="#404B5C" stroke-width="1.41991" stroke-linecap="round" stroke-linejoin="round"/>
</svg>
