<svg width="265" height="149" viewBox="0 0 265 149" fill="none" xmlns="http://www.w3.org/2000/svg">
<rect width="265" height="149"/>
<rect x="63" y="54" width="140" height="40" rx="5" fill="white" stroke="#4A5568" stroke-width="2" stroke-linecap="round" stroke-linejoin="round"/>
<path d="M163 54H198C200.761 54 203 56.2386 203 59V89C203 91.7614 200.761 94 198 94H163V54Z" fill="#52CCC1" stroke="#4A5568" stroke-width="2" stroke-linecap="round" stroke-linejoin="round"/>
<path d="M177 72L183.02 78L189 72" stroke="white" stroke-width="3" stroke-linecap="round" stroke-linejoin="round"/>
<path d="M81.6954 71.5205C81.5034 70.5605 80.7114 69.3125 78.6474 69.3125C77.0394 69.3125 75.6834 70.4645 75.6834 71.9765C75.6834 73.2605 76.5594 74.1365 77.9154 74.4125L79.1034 74.6525C79.7634 74.7845 80.1354 75.1685 80.1354 75.6605C80.1354 76.2605 79.6434 76.7045 78.7554 76.7045C77.5554 76.7045 76.9674 75.9485 76.8954 75.1085L75.3594 75.5165C75.4914 76.7285 76.4874 78.1805 78.7434 78.1805C80.7234 78.1805 81.8154 76.8605 81.8154 75.5525C81.8154 74.3525 80.9874 73.3445 79.4394 73.0445L78.2514 72.8165C77.6274 72.6965 77.3274 72.3245 77.3274 71.8565C77.3274 71.2925 77.8554 70.7765 78.6594 70.7765C79.7394 70.7765 80.1234 71.5085 80.2074 71.9765L81.6954 71.5205Z" fill="#4A5568"/>
<path d="M84.2107 74.3765C84.2467 73.8365 84.7027 73.2125 85.5307 73.2125C86.4427 73.2125 86.8267 73.7885 86.8507 74.3765H84.2107ZM87.0067 75.9125C86.8147 76.4405 86.4067 76.8125 85.6627 76.8125C84.8707 76.8125 84.2107 76.2485 84.1747 75.4685H88.3987C88.3987 75.4445 88.4227 75.2045 88.4227 74.9765C88.4227 73.0805 87.3307 71.9165 85.5067 71.9165C83.9947 71.9165 82.6027 73.1405 82.6027 75.0245C82.6027 77.0165 84.0307 78.1805 85.6507 78.1805C87.1027 78.1805 88.0387 77.3285 88.3387 76.3085L87.0067 75.9125Z" fill="#4A5568"/>
<path d="M91.2755 78.0005V69.3125H89.6795V78.0005H91.2755Z" fill="#4A5568"/>
<path d="M94.1482 74.3765C94.1842 73.8365 94.6402 73.2125 95.4682 73.2125C96.3802 73.2125 96.7642 73.7885 96.7882 74.3765H94.1482ZM96.9442 75.9125C96.7522 76.4405 96.3442 76.8125 95.6002 76.8125C94.8082 76.8125 94.1482 76.2485 94.1122 75.4685H98.3362C98.3362 75.4445 98.3602 75.2045 98.3602 74.9765C98.3602 73.0805 97.2682 71.9165 95.4442 71.9165C93.9322 71.9165 92.5402 73.1405 92.5402 75.0245C92.5402 77.0165 93.9682 78.1805 95.5882 78.1805C97.0402 78.1805 97.9762 77.3285 98.2762 76.3085L96.9442 75.9125Z" fill="#4A5568"/>
<path d="M102.269 73.3925C103.061 73.3925 103.433 73.8965 103.577 74.3885L105.005 73.9085C104.753 72.9125 103.841 71.9165 102.233 71.9165C100.517 71.9165 99.173 73.2245 99.173 75.0485C99.173 76.8605 100.541 78.1805 102.281 78.1805C103.853 78.1805 104.777 77.1725 105.041 76.1885L103.637 75.7205C103.505 76.1765 103.097 76.7165 102.281 76.7165C101.465 76.7165 100.769 76.1165 100.769 75.0485C100.769 73.9805 101.453 73.3925 102.269 73.3925Z" fill="#4A5568"/>
<path d="M108.183 70.3325H106.743V71.1605C106.743 71.6885 106.455 72.0965 105.831 72.0965H105.531V73.5125H106.599V76.2605C106.599 77.4005 107.319 78.0845 108.471 78.0845C108.939 78.0845 109.227 78.0005 109.371 77.9405V76.6205C109.287 76.6445 109.071 76.6685 108.879 76.6685C108.423 76.6685 108.183 76.5005 108.183 75.9845V73.5125H109.371V72.0965H108.183V70.3325Z" fill="#4A5568"/>
</svg>
