<svg width="265" height="149" viewBox="0 0 265 149" fill="none" xmlns="http://www.w3.org/2000/svg">
<rect width="30.3095" height="60.619" rx="1.57548" transform="matrix(-1.8218e-08 1 1 1.04879e-07 68 77.5806)" fill="#52CCC1" stroke="#2B7C75" stroke-width="1.48" stroke-linecap="round" stroke-linejoin="round"/>
<rect width="11.5367" height="11.7185" rx="5.76836" transform="matrix(-4.56338e-08 1 1 4.187e-08 73.3259 82.9066)" fill="#52CCC1" stroke="#2B7C75" stroke-width="1.48" stroke-linecap="round" stroke-linejoin="round"/>
<rect x="-0.265019" y="-0.265019" width="3.19236" height="3.23431" rx="1.59618" transform="matrix(-4.44001e-08 1 1 4.30333e-08 77.8335 87.3437)" fill="white" stroke="white" stroke-width="0.530038" stroke-linecap="round" stroke-linejoin="round"/>
<path d="M107.705 90.9663L100.386 86.2952C100.041 86.0748 99.6402 85.9484 99.2259 85.9293C98.8116 85.9102 98.3996 85.9993 98.0341 86.1869C97.6685 86.3746 97.3631 86.6538 97.1505 86.9947C96.9379 87.3356 96.826 87.7254 96.8269 88.1224V97.4626C96.8268 97.8592 96.9393 98.2485 97.1522 98.5888C97.3652 98.929 97.6707 99.2076 98.0361 99.3947C98.4015 99.5819 98.8131 99.6705 99.227 99.6513C99.641 99.6321 100.042 99.5056 100.386 99.2855L107.705 94.6143C108.018 94.4142 108.275 94.1432 108.453 93.8252C108.631 93.5072 108.724 93.1521 108.724 92.7914C108.724 92.4308 108.631 92.0757 108.453 91.7577C108.275 91.4397 108.018 91.1686 107.705 90.9685V90.9663Z" fill="white" stroke="#2B7C75" stroke-width="1.4" stroke-linecap="round" stroke-linejoin="round"/>
<rect width="30.3095" height="60.619" rx="1.57548" transform="matrix(-5.21958e-08 1 1 3.66061e-08 68 42)" fill="white" stroke="#404B5C" stroke-width="1.48" stroke-linecap="round" stroke-linejoin="round"/>
<rect width="11.5367" height="11.7185" rx="5.76836" transform="matrix(-4.44001e-08 1 1 4.30333e-08 73.3259 47.326)" fill="white" stroke="#404B5C" stroke-width="1.48" stroke-linecap="round" stroke-linejoin="round"/>
<rect width="30.3095" height="60.619" rx="1.57548" transform="matrix(-5.21958e-08 1 1 3.66061e-08 135.263 42)" fill="white" stroke="#404B5C" stroke-width="1.48" stroke-linecap="round" stroke-linejoin="round"/>
<rect width="11.5367" height="11.7185" rx="5.76836" transform="matrix(-4.44001e-08 1 1 4.30333e-08 140.589 47.326)" fill="white" stroke="#404B5C" stroke-width="1.48" stroke-linecap="round" stroke-linejoin="round"/>
<rect width="30.3095" height="60.619" rx="1.57548" transform="matrix(-5.21958e-08 1 1 3.66061e-08 135.263 77.6905)" fill="white" stroke="#404B5C" stroke-width="1.48" stroke-linecap="round" stroke-linejoin="round"/>
<rect width="11.5367" height="11.7185" rx="5.76836" transform="matrix(-4.44001e-08 1 1 4.30333e-08 140.589 83.0165)" fill="white" stroke="#404B5C" stroke-width="1.48" stroke-linecap="round" stroke-linejoin="round"/>
<path d="M68 105.837L68 79.8532C68 78.6588 68.9683 77.6905 70.1627 77.6905L126.456 77.6905C127.651 77.6905 128.619 78.6588 128.619 79.8532L128.619 105.837C128.619 107.032 127.651 108 126.456 108L70.1627 108C68.9683 108 68 107.032 68 105.837Z" fill="#52CCC1" stroke="#2B7C75" stroke-width="1.48" stroke-linecap="round" stroke-linejoin="round"/>
<path d="M73.3259 88.7848L73.3259 88.7848C73.3259 85.5991 75.9085 83.0165 79.0943 83.0165L79.2761 83.0165C82.4618 83.0165 85.0444 85.5991 85.0444 88.7848L85.0444 88.7848C85.0444 91.9706 82.4618 94.5532 79.2761 94.5532L79.0943 94.5532C75.9085 94.5532 73.3259 91.9706 73.3259 88.7848Z" fill="#52CCC1" stroke="#2B7C75" stroke-width="1.48" stroke-linecap="round" stroke-linejoin="round"/>
<path d="M79.1647 90.4798C78.2286 90.4798 77.4697 89.7209 77.4697 88.7848C77.4697 87.8487 78.2286 87.0898 79.1647 87.0898L79.2066 87.0898C80.1427 87.0898 80.9016 87.8487 80.9016 88.7848C80.9016 89.7209 80.1427 90.4798 79.2066 90.4798L79.1647 90.4798Z" fill="white" stroke="white" stroke-width="0.530038" stroke-linecap="round" stroke-linejoin="round"/>
<path d="M81.7272 107.986L95.1043 94.6083C96.1983 93.5147 97.6822 92.9003 99.2293 92.9003C100.776 92.9003 102.26 93.5147 103.354 94.6083L110.897 102.152L115.523 97.5253C116.617 96.4317 118.101 95.8173 119.648 95.8173C121.195 95.8173 122.679 96.4317 123.773 97.5253L128.399 102.152V106.627C128.399 107.314 127.027 107.986 127.027 107.986H116.731H81.7272Z" fill="white"/>
<path d="M116.731 107.986H127.027C127.027 107.986 128.399 107.314 128.399 106.627C128.399 105.941 128.399 102.152 128.399 102.152L123.773 97.5253C122.679 96.4317 121.195 95.8173 119.648 95.8173C118.101 95.8173 116.617 96.4317 115.523 97.5253L110.897 102.152M116.731 107.986L103.354 94.6083C102.26 93.5147 100.776 92.9003 99.2293 92.9003C97.6822 92.9003 96.1983 93.5147 95.1043 94.6083L81.7272 107.986H116.731Z" stroke="#2B7C75" stroke-width="1.42601" stroke-linecap="round" stroke-linejoin="round"/>
</svg>
