<svg width="265" height="149" viewBox="0 0 265 149" fill="none" xmlns="http://www.w3.org/2000/svg">
<path d="M96 71.999L174 48" stroke="#52CCC1" stroke-width="2" stroke-linecap="round"/>
<path d="M96 48L169 94" stroke="#52CCC1" stroke-width="2" stroke-linecap="round"/>
<path d="M90 94L169 72.3295" stroke="#52CCC1" stroke-width="2" stroke-linecap="round"/>
<rect width="17.2687" height="82.8898" rx="8.63435" transform="matrix(-4.25297e-08 1 1 4.49259e-08 17.1104 39)" fill="white" stroke="#404B5C" stroke-width="2" stroke-linecap="round" stroke-linejoin="round"/>
<rect width="17.2687" height="82.8898" rx="8.63435" transform="matrix(-4.25297e-08 1 1 4.49259e-08 17 62.0254)" fill="white" stroke="#404B5C" stroke-width="2" stroke-linecap="round" stroke-linejoin="round"/>
<rect width="17.2687" height="82.8898" rx="8.63435" transform="matrix(-4.44001e-08 1 1 4.30333e-08 17.1099 85.0498)" fill="white" stroke="#404B5C" stroke-width="2" stroke-linecap="round" stroke-linejoin="round"/>
<rect width="17.264" height="82.8674" rx="8.63202" transform="matrix(-4.25297e-08 1 1 4.49259e-08 165.133 39)" fill="white" stroke="#404B5C" stroke-width="2" stroke-linecap="round" stroke-linejoin="round"/>
<rect width="17.264" height="82.8674" rx="8.63202" transform="matrix(-4.25297e-08 1 1 4.49259e-08 165 62.0186)" fill="white" stroke="#404B5C" stroke-width="2" stroke-linecap="round" stroke-linejoin="round"/>
<rect width="17.264" height="82.8674" rx="8.63202" transform="matrix(-4.44001e-08 1 1 4.30333e-08 165.132 85.0381)" fill="white" stroke="#404B5C" stroke-width="2" stroke-linecap="round" stroke-linejoin="round"/>
</svg>
