<svg width="265" height="149" viewBox="0 0 265 149" fill="none" xmlns="http://www.w3.org/2000/svg">
<rect width="17.9703" height="86.2574" rx="8.98515" transform="matrix(-4.25297e-08 1 1 4.49259e-08 106.743 32.1982)" fill="white" stroke="#404B5C" stroke-width="2" stroke-linecap="round" stroke-linejoin="round"/>
<g clip-path="url(#clip0_2696_3950)">
<path d="M89.1718 45.3759C89.1718 46.2544 88.453 46.9732 87.5744 46.9732C86.6959 46.9732 85.9771 46.2544 85.9771 45.3759C85.9771 44.4973 86.6959 43.7785 87.5744 43.7785C88.453 43.7785 89.1718 44.4973 89.1718 45.3759ZM87.5744 38.9864C86.6959 38.9864 85.9771 39.7052 85.9771 40.5838C85.9771 41.4623 86.6959 42.1811 87.5744 42.1811C88.453 42.1811 89.1718 41.4623 89.1718 40.5838C89.1718 39.7052 88.453 38.9864 87.5744 38.9864ZM87.5744 34.1943C86.6959 34.1943 85.9771 34.9131 85.9771 35.7917C85.9771 36.6702 86.6959 37.3891 87.5744 37.3891C88.453 37.3891 89.1718 36.6702 89.1718 35.7917C89.1718 34.9131 88.453 34.1943 87.5744 34.1943ZM92.3665 37.3891C93.245 37.3891 93.9638 36.6702 93.9638 35.7917C93.9638 34.9131 93.245 34.1943 92.3665 34.1943C91.4879 34.1943 90.7691 34.9131 90.7691 35.7917C90.7691 36.6702 91.4879 37.3891 92.3665 37.3891ZM92.3665 38.9864C91.4879 38.9864 90.7691 39.7052 90.7691 40.5838C90.7691 41.4623 91.4879 42.1811 92.3665 42.1811C93.245 42.1811 93.9638 41.4623 93.9638 40.5838C93.9638 39.7052 93.245 38.9864 92.3665 38.9864ZM92.3665 43.7785C91.4879 43.7785 90.7691 44.4973 90.7691 45.3759C90.7691 46.2544 91.4879 46.9732 92.3665 46.9732C93.245 46.9732 93.9638 46.2544 93.9638 45.3759C93.9638 44.4973 93.245 43.7785 92.3665 43.7785Z" fill="#404B5C"/>
</g>
<g opacity="0.2">
<rect width="17.9703" height="86.2574" rx="8.98515" transform="matrix(-4.25297e-08 1 1 4.49259e-08 106.225 65.7432)" fill="white" stroke="#404B5C" stroke-width="2" stroke-linecap="round" stroke-linejoin="round" stroke-dasharray="2.99 2.99"/>
</g>
<rect width="17.9703" height="86.2574" rx="8.98515" transform="matrix(-4.44001e-08 1 1 4.30333e-08 106.743 100.485)" fill="white" stroke="#404B5C" stroke-width="2" stroke-linecap="round" stroke-linejoin="round"/>
<g clip-path="url(#clip1_2696_3950)">
<path d="M89.1718 113.663C89.1718 114.542 88.453 115.26 87.5744 115.26C86.6959 115.26 85.9771 114.542 85.9771 113.663C85.9771 112.784 86.6959 112.066 87.5744 112.066C88.453 112.066 89.1718 112.784 89.1718 113.663ZM87.5744 107.274C86.6959 107.274 85.9771 107.992 85.9771 108.871C85.9771 109.749 86.6959 110.468 87.5744 110.468C88.453 110.468 89.1718 109.749 89.1718 108.871C89.1718 107.992 88.453 107.274 87.5744 107.274ZM87.5744 102.481C86.6959 102.481 85.9771 103.2 85.9771 104.079C85.9771 104.957 86.6959 105.676 87.5744 105.676C88.453 105.676 89.1718 104.957 89.1718 104.079C89.1718 103.2 88.453 102.481 87.5744 102.481ZM92.3665 105.676C93.245 105.676 93.9638 104.957 93.9638 104.079C93.9638 103.2 93.245 102.481 92.3665 102.481C91.4879 102.481 90.7691 103.2 90.7691 104.079C90.7691 104.957 91.4879 105.676 92.3665 105.676ZM92.3665 107.274C91.4879 107.274 90.7691 107.992 90.7691 108.871C90.7691 109.749 91.4879 110.468 92.3665 110.468C93.245 110.468 93.9638 109.749 93.9638 108.871C93.9638 107.992 93.245 107.274 92.3665 107.274ZM92.3665 112.066C91.4879 112.066 90.7691 112.784 90.7691 113.663C90.7691 114.542 91.4879 115.26 92.3665 115.26C93.245 115.26 93.9638 114.542 93.9638 113.663C93.9638 112.784 93.245 112.066 92.3665 112.066Z" fill="#404B5C"/>
</g>
<rect width="17.9703" height="86.2574" rx="8.98515" transform="matrix(-4.25297e-08 1 1 4.49259e-08 98.3564 58.5547)" fill="white" stroke="#404B5C" stroke-width="2" stroke-linecap="round" stroke-linejoin="round"/>
<path fill-rule="evenodd" clip-rule="evenodd" d="M81.0196 59.5874C81.3315 59.2755 81.8372 59.2755 82.1491 59.5874L84.5451 61.9835C84.857 62.2954 84.857 62.8011 84.5451 63.113C84.2332 63.4249 83.7275 63.4249 83.4156 63.113L82.383 62.0804V67.3403H87.6429L86.6103 66.3077C86.2984 65.9958 86.2984 65.4901 86.6103 65.1782C86.9222 64.8663 87.4279 64.8663 87.7398 65.1782L90.1359 67.5742C90.4478 67.8861 90.4478 68.3918 90.1359 68.7037L87.7398 71.0998C87.4279 71.4117 86.9222 71.4117 86.6103 71.0998C86.2984 70.7879 86.2984 70.2822 86.6103 69.9703L87.6429 68.9377H82.383V74.1976L83.4156 73.165C83.7275 72.8531 84.2332 72.8531 84.5451 73.165C84.857 73.4769 84.857 73.9826 84.5451 74.2945L82.1491 76.6905C81.8372 77.0024 81.3315 77.0024 81.0196 76.6905L78.6235 74.2945C78.3116 73.9826 78.3116 73.4769 78.6235 73.165C78.9354 72.8531 79.4411 72.8531 79.753 73.165L80.7856 74.1976V68.9377H75.5257L76.5583 69.9703C76.8702 70.2822 76.8702 70.7879 76.5583 71.0998C76.2464 71.4117 75.7407 71.4117 75.4288 71.0998L73.0328 68.7037C72.7209 68.3918 72.7209 67.8861 73.0328 67.5742L75.4288 65.1782C75.7407 64.8663 76.2464 64.8663 76.5583 65.1782C76.8702 65.4901 76.8702 65.9958 76.5583 66.3077L75.5257 67.3403H80.7856V62.0804L79.753 63.113C79.4411 63.4249 78.9354 63.4249 78.6235 63.113C78.3116 62.8011 78.3116 62.2954 78.6235 61.9835L81.0196 59.5874Z" fill="#52CCC1"/>
<defs>
<clipPath id="clip0_2696_3950">
<rect width="19.1683" height="19.1683" fill="white" transform="translate(80.3862 31)"/>
</clipPath>
<clipPath id="clip1_2696_3950">
<rect width="19.1683" height="19.1683" fill="white" transform="translate(80.3862 99.2871)"/>
</clipPath>
</defs>
</svg>
