<svg width="265" height="149" viewBox="0 0 265 149" fill="none" xmlns="http://www.w3.org/2000/svg">
<rect width="16.8363" height="16.8364" rx="8.41817" transform="matrix(-4.37114e-08 1 1 4.37114e-08 80 42)" fill="#52CCC1" stroke="#2B7C75" stroke-width="2" stroke-linecap="round" stroke-linejoin="round"/>
<rect x="-0.5" y="-0.5" width="4.88531" height="4.88531" rx="2.44266" transform="matrix(-4.37114e-08 1 1 4.37114e-08 86.4755 48.4755)" fill="white" stroke="white" stroke-linecap="round" stroke-linejoin="round"/>
<rect width="16.8364" height="16.8364" rx="8.41818" transform="matrix(-4.37114e-08 1 1 4.37114e-08 80.1284 66.607)" fill="white" stroke="#4A5568" stroke-width="2" stroke-linecap="round" stroke-linejoin="round"/>
<rect width="16.8364" height="16.8364" rx="8.41818" transform="matrix(-4.37114e-08 1 1 4.37114e-08 80 91.3394)" fill="white" stroke="#4A5568" stroke-width="2" stroke-linecap="round" stroke-linejoin="round"/>
<rect width="16.8363" height="80.2964" rx="8.41817" transform="matrix(-4.37114e-08 1 1 4.37114e-08 104.607 42)" fill="#52CCC1" stroke="#2B7C75" stroke-width="2" stroke-linecap="round" stroke-linejoin="round"/>
<rect width="16.8363" height="80.2964" rx="8.41817" transform="matrix(-4.37114e-08 1 1 4.37114e-08 104.607 66.607)" fill="white" stroke="#4A5568" stroke-width="2" stroke-linecap="round" stroke-linejoin="round"/>
<rect width="16.8363" height="80.2964" rx="8.41817" transform="matrix(-4.37114e-08 1 1 4.37114e-08 104.607 91.2139)" fill="white" stroke="#4A5568" stroke-width="2" stroke-linecap="round" stroke-linejoin="round"/>
</svg>
