<svg width="265" height="149" viewBox="0 0 265 149" fill="none" xmlns="http://www.w3.org/2000/svg">
<rect x="195" y="89" width="60" height="28" rx="2.21538" transform="rotate(-180 195 89)" fill="white" stroke="#404B5C" stroke-width="1.47692" stroke-linecap="round" stroke-linejoin="round"/>
<rect x="129" y="89" width="61" height="28" rx="2.21538" transform="rotate(-180 129 89)" fill="#52CCC1" stroke="#2B7C75" stroke-width="1.47692" stroke-linecap="round" stroke-linejoin="round"/>
<path d="M89.497 72.598V79H91.224V72.598H93.578V71.146H87.143V72.598H89.497ZM93.4738 73.313V79H95.0358V76.437C95.0358 76.1803 95.0615 75.942 95.1128 75.722C95.1642 75.502 95.2485 75.3113 95.3658 75.15C95.4905 74.9813 95.6518 74.8493 95.8498 74.754C96.0478 74.6587 96.2898 74.611 96.5758 74.611C96.6712 74.611 96.7702 74.6183 96.8728 74.633C96.9755 74.6403 97.0635 74.6513 97.1368 74.666V73.214C97.0122 73.1773 96.8985 73.159 96.7958 73.159C96.5978 73.159 96.4072 73.1883 96.2238 73.247C96.0405 73.3057 95.8682 73.39 95.7068 73.5C95.5455 73.6027 95.4025 73.731 95.2778 73.885C95.1532 74.0317 95.0542 74.193 94.9808 74.369H94.9588V73.313H93.4738ZM103.249 79V73.313H101.687V76.294C101.687 76.8733 101.592 77.2913 101.401 77.548C101.211 77.7973 100.903 77.922 100.477 77.922C100.103 77.922 99.8429 77.8083 99.6962 77.581C99.5496 77.3463 99.4762 76.9943 99.4762 76.525V73.313H97.9142V76.811C97.9142 77.163 97.9436 77.4857 98.0022 77.779C98.0682 78.065 98.1782 78.3107 98.3322 78.516C98.4862 78.714 98.6952 78.868 98.9592 78.978C99.2306 79.088 99.5752 79.143 99.9932 79.143C100.323 79.143 100.646 79.0697 100.961 78.923C101.277 78.7763 101.533 78.538 101.731 78.208H101.764V79H103.249ZM108.428 75.546H105.887C105.894 75.436 105.916 75.3113 105.953 75.172C105.997 75.0327 106.066 74.9007 106.162 74.776C106.264 74.6513 106.396 74.5487 106.558 74.468C106.726 74.38 106.935 74.336 107.185 74.336C107.566 74.336 107.848 74.4387 108.032 74.644C108.222 74.8493 108.354 75.15 108.428 75.546ZM105.887 76.536H109.99C110.019 76.096 109.982 75.6743 109.88 75.271C109.777 74.8677 109.608 74.5083 109.374 74.193C109.146 73.8777 108.853 73.6283 108.494 73.445C108.134 73.2543 107.713 73.159 107.229 73.159C106.796 73.159 106.4 73.236 106.041 73.39C105.689 73.544 105.384 73.7567 105.128 74.028C104.871 74.292 104.673 74.6073 104.534 74.974C104.394 75.3407 104.325 75.7367 104.325 76.162C104.325 76.602 104.391 77.0053 104.523 77.372C104.662 77.7387 104.856 78.054 105.106 78.318C105.355 78.582 105.659 78.7873 106.019 78.934C106.378 79.0733 106.781 79.143 107.229 79.143C107.874 79.143 108.424 78.9963 108.879 78.703C109.333 78.4097 109.671 77.922 109.891 77.24H108.516C108.464 77.416 108.325 77.5847 108.098 77.746C107.87 77.9 107.599 77.977 107.284 77.977C106.844 77.977 106.506 77.8633 106.272 77.636C106.037 77.4087 105.909 77.042 105.887 76.536Z" fill="white"/>
<path d="M151.759 71.146V79H153.486V75.755H156.775V74.413H153.486V72.598H157.281V71.146H151.759ZM158.214 75.062C158.236 74.6953 158.327 74.391 158.489 74.149C158.65 73.907 158.855 73.7127 159.105 73.566C159.354 73.4193 159.633 73.3167 159.941 73.258C160.256 73.192 160.571 73.159 160.887 73.159C161.173 73.159 161.462 73.181 161.756 73.225C162.049 73.2617 162.317 73.3387 162.559 73.456C162.801 73.5733 162.999 73.7383 163.153 73.951C163.307 74.1563 163.384 74.4313 163.384 74.776V77.735C163.384 77.9917 163.398 78.2373 163.428 78.472C163.457 78.7067 163.508 78.8827 163.582 79H161.998C161.968 78.912 161.943 78.824 161.921 78.736C161.906 78.6407 161.895 78.5453 161.888 78.45C161.638 78.7067 161.345 78.8863 161.008 78.989C160.67 79.0917 160.326 79.143 159.974 79.143C159.702 79.143 159.449 79.11 159.215 79.044C158.98 78.978 158.775 78.8753 158.599 78.736C158.423 78.5967 158.283 78.4207 158.181 78.208C158.085 77.9953 158.038 77.7423 158.038 77.449C158.038 77.1263 158.093 76.8623 158.203 76.657C158.32 76.4443 158.467 76.2757 158.643 76.151C158.826 76.0263 159.031 75.9347 159.259 75.876C159.493 75.81 159.728 75.7587 159.963 75.722C160.197 75.6853 160.428 75.656 160.656 75.634C160.883 75.612 161.085 75.579 161.261 75.535C161.437 75.491 161.576 75.4287 161.679 75.348C161.781 75.26 161.829 75.1353 161.822 74.974C161.822 74.8053 161.792 74.6733 161.734 74.578C161.682 74.4753 161.609 74.3983 161.514 74.347C161.426 74.2883 161.319 74.2517 161.195 74.237C161.077 74.215 160.949 74.204 160.81 74.204C160.502 74.204 160.26 74.27 160.084 74.402C159.908 74.534 159.805 74.754 159.776 75.062H158.214ZM161.822 76.217C161.756 76.2757 161.671 76.3233 161.569 76.36C161.473 76.3893 161.367 76.415 161.25 76.437C161.14 76.459 161.022 76.4773 160.898 76.492C160.773 76.5067 160.648 76.525 160.524 76.547C160.406 76.569 160.289 76.5983 160.172 76.635C160.062 76.6717 159.963 76.723 159.875 76.789C159.794 76.8477 159.728 76.9247 159.677 77.02C159.625 77.1153 159.6 77.2363 159.6 77.383C159.6 77.5223 159.625 77.6397 159.677 77.735C159.728 77.8303 159.798 77.9073 159.886 77.966C159.974 78.0173 160.076 78.054 160.194 78.076C160.311 78.098 160.432 78.109 160.557 78.109C160.865 78.109 161.103 78.0577 161.272 77.955C161.44 77.8523 161.565 77.7313 161.646 77.592C161.726 77.4453 161.774 77.2987 161.789 77.152C161.811 77.0053 161.822 76.888 161.822 76.8V76.217ZM164.805 71.146V79H166.367V71.146H164.805ZM168.972 77.152H167.487C167.502 77.5333 167.586 77.8523 167.74 78.109C167.901 78.3583 168.103 78.56 168.345 78.714C168.594 78.868 168.877 78.978 169.192 79.044C169.507 79.11 169.83 79.143 170.16 79.143C170.483 79.143 170.798 79.11 171.106 79.044C171.421 78.9853 171.7 78.879 171.942 78.725C172.184 78.571 172.378 78.3693 172.525 78.12C172.679 77.8633 172.756 77.548 172.756 77.174C172.756 76.91 172.705 76.69 172.602 76.514C172.499 76.3307 172.364 76.1803 172.195 76.063C172.026 75.9383 171.832 75.8393 171.612 75.766C171.399 75.6927 171.179 75.6303 170.952 75.579C170.732 75.5277 170.516 75.48 170.303 75.436C170.09 75.392 169.9 75.3443 169.731 75.293C169.57 75.2343 169.438 75.161 169.335 75.073C169.232 74.985 169.181 74.8713 169.181 74.732C169.181 74.6147 169.21 74.523 169.269 74.457C169.328 74.3837 169.397 74.3287 169.478 74.292C169.566 74.2553 169.661 74.2333 169.764 74.226C169.867 74.2113 169.962 74.204 170.05 74.204C170.329 74.204 170.571 74.259 170.776 74.369C170.981 74.4717 171.095 74.6733 171.117 74.974H172.602C172.573 74.622 172.481 74.3323 172.327 74.105C172.18 73.8703 171.993 73.6833 171.766 73.544C171.539 73.4047 171.278 73.3057 170.985 73.247C170.699 73.1883 170.402 73.159 170.094 73.159C169.786 73.159 169.485 73.1883 169.192 73.247C168.899 73.2983 168.635 73.3937 168.4 73.533C168.165 73.665 167.975 73.8483 167.828 74.083C167.689 74.3177 167.619 74.6183 167.619 74.985C167.619 75.2343 167.67 75.447 167.773 75.623C167.876 75.7917 168.011 75.9347 168.18 76.052C168.349 76.162 168.539 76.2537 168.752 76.327C168.972 76.393 169.196 76.4517 169.423 76.503C169.98 76.6203 170.413 76.7377 170.721 76.855C171.036 76.9723 171.194 77.1483 171.194 77.383C171.194 77.5223 171.161 77.6397 171.095 77.735C171.029 77.823 170.945 77.8963 170.842 77.955C170.747 78.0063 170.637 78.0467 170.512 78.076C170.395 78.098 170.281 78.109 170.171 78.109C170.017 78.109 169.867 78.0907 169.72 78.054C169.581 78.0173 169.456 77.9623 169.346 77.889C169.236 77.8083 169.144 77.7093 169.071 77.592C169.005 77.4673 168.972 77.3207 168.972 77.152ZM177.663 75.546H175.122C175.129 75.436 175.151 75.3113 175.188 75.172C175.232 75.0327 175.302 74.9007 175.397 74.776C175.5 74.6513 175.632 74.5487 175.793 74.468C175.962 74.38 176.171 74.336 176.42 74.336C176.801 74.336 177.084 74.4387 177.267 74.644C177.458 74.8493 177.59 75.15 177.663 75.546ZM175.122 76.536H179.225C179.254 76.096 179.218 75.6743 179.115 75.271C179.012 74.8677 178.844 74.5083 178.609 74.193C178.382 73.8777 178.088 73.6283 177.729 73.445C177.37 73.2543 176.948 73.159 176.464 73.159C176.031 73.159 175.635 73.236 175.276 73.39C174.924 73.544 174.62 73.7567 174.363 74.028C174.106 74.292 173.908 74.6073 173.769 74.974C173.63 75.3407 173.56 75.7367 173.56 76.162C173.56 76.602 173.626 77.0053 173.758 77.372C173.897 77.7387 174.092 78.054 174.341 78.318C174.59 78.582 174.895 78.7873 175.254 78.934C175.613 79.0733 176.017 79.143 176.464 79.143C177.109 79.143 177.659 78.9963 178.114 78.703C178.569 78.4097 178.906 77.922 179.126 77.24H177.751C177.7 77.416 177.56 77.5847 177.333 77.746C177.106 77.9 176.834 77.977 176.519 77.977C176.079 77.977 175.742 77.8633 175.507 77.636C175.272 77.4087 175.144 77.042 175.122 76.536Z" fill="#404B5C"/>
</svg>
