<svg width="265" height="149" viewBox="0 0 265 149" fill="none" xmlns="http://www.w3.org/2000/svg">
<rect width="30.3375" height="60.675" rx="1.57548" transform="matrix(-1.8218e-08 1 1 1.04879e-07 68 77.6135)" fill="#52CCC1" stroke="#2B7C75" stroke-width="1.48" stroke-linecap="round" stroke-linejoin="round"/>
<rect width="11.5474" height="11.7293" rx="1" transform="matrix(-4.56338e-08 1 1 4.187e-08 73.3309 82.9443)" fill="#52CCC1" stroke="#2B7C75" stroke-width="1.48" stroke-linecap="round" stroke-linejoin="round"/>
<path d="M76.2439 89.0112L78.3049 91.0405L83.4573 85.9673" stroke="white" stroke-width="2.21538" stroke-linecap="round" stroke-linejoin="round"/>
<path d="M107.741 91.0116L100.416 86.3361C100.071 86.1155 99.6696 85.989 99.2548 85.9699C98.8401 85.9508 98.4278 86.0399 98.0619 86.2278C97.696 86.4156 97.3903 86.6951 97.1775 87.0363C96.9647 87.3775 96.8527 87.7677 96.8536 88.1651V97.5138C96.8536 97.9108 96.9661 98.3004 97.1793 98.641C97.3924 98.9816 97.6982 99.2605 98.0639 99.4478C98.4297 99.6351 98.8417 99.7238 99.256 99.7046C99.6703 99.6853 100.071 99.5587 100.416 99.3384L107.741 94.6629C108.055 94.4626 108.312 94.1913 108.49 93.873C108.668 93.5548 108.761 93.1993 108.761 92.8383C108.761 92.4774 108.668 92.1219 108.49 91.8036C108.312 91.4854 108.055 91.214 107.741 91.0138V91.0116Z" fill="white" stroke="#2B7C75" stroke-width="1.4" stroke-linecap="round" stroke-linejoin="round"/>
<rect width="30.3375" height="60.675" rx="1.57548" transform="matrix(-1.8218e-08 1 1 1.04879e-07 135.325 42)" fill="#52CCC1" stroke="#2B7C75" stroke-width="1.48" stroke-linecap="round" stroke-linejoin="round"/>
<rect width="11.5474" height="11.7293" rx="1" transform="matrix(-4.56338e-08 1 1 4.187e-08 140.656 47.3309)" fill="#52CCC1" stroke="#2B7C75" stroke-width="1.48" stroke-linecap="round" stroke-linejoin="round"/>
<path d="M143.569 53.3978L145.63 55.4271L150.782 50.3539" stroke="white" stroke-width="2.21538" stroke-linecap="round" stroke-linejoin="round"/>
<path d="M175.066 55.2881L167.741 50.6127C167.396 50.3921 166.995 50.2655 166.58 50.2464C166.165 50.2273 165.753 50.3165 165.387 50.5043C165.021 50.6921 164.715 50.9716 164.502 51.3128C164.29 51.6541 164.178 52.0442 164.179 52.4416V61.7904C164.179 62.1874 164.291 62.577 164.504 62.9176C164.717 63.2582 165.023 63.537 165.389 63.7243C165.755 63.9116 166.167 64.0004 166.581 63.9811C166.995 63.9619 167.396 63.8353 167.741 63.6149L175.066 58.9395C175.38 58.7392 175.637 58.4679 175.815 58.1496C175.993 57.8313 176.086 57.4759 176.086 57.1149C176.086 56.7539 175.993 56.3985 175.815 56.0802C175.637 55.7619 175.38 55.4906 175.066 55.2903V55.2881Z" fill="white" stroke="#2B7C75" stroke-width="1.4" stroke-linecap="round" stroke-linejoin="round"/>
<rect width="30.3375" height="60.675" rx="1.57548" transform="matrix(-5.21958e-08 1 1 3.66061e-08 68 42)" fill="white" stroke="#404B5C" stroke-width="1.48" stroke-linecap="round" stroke-linejoin="round"/>
<rect width="11.5474" height="11.7293" rx="1" transform="matrix(-4.44001e-08 1 1 4.30333e-08 73.3309 47.3309)" fill="white" stroke="#404B5C" stroke-width="1.48" stroke-linecap="round" stroke-linejoin="round"/>
<rect width="30.3375" height="60.675" rx="1.57548" transform="matrix(-5.21958e-08 1 1 3.66061e-08 135.325 77.7235)" fill="white" stroke="#404B5C" stroke-width="1.48" stroke-linecap="round" stroke-linejoin="round"/>
<rect width="11.5474" height="11.7293" rx="1" transform="matrix(-4.44001e-08 1 1 4.30333e-08 140.656 83.0544)" fill="white" stroke="#404B5C" stroke-width="1.48" stroke-linecap="round" stroke-linejoin="round"/>
</svg>
